<svg xmlns="http://www.w3.org/2000/svg" viewBox="0 0 200 200" width="200" height="200" role="img" aria-labelledby="t">
<title id="t">Cat</title>
<defs>
<linearGradient id="bg" x1="0" y1="0" x2="0" y2="1">
<stop offset="0" stop-color="#FDEBF4"/>
<stop offset="1" stop-color="#F6CCE3"/>
</linearGradient>
</defs>
<circle cx="100" cy="100" r="100" fill="url(#bg)"/>
<path d="M58 78 L42 34 L84 66 Z" fill="#F2A65A"/>
<path d="M142 78 L158 34 L116 66 Z" fill="#F2A65A"/>
<path d="M60 72 L50 44 L78 64 Z" fill="#F9C9DC"/>
<path d="M140 72 L150 44 L122 64 Z" fill="#F9C9DC"/>
<circle cx="100" cy="114" r="52" fill="#F2A65A"/>
<ellipse cx="100" cy="140" rx="28" ry="20" fill="#FFF3E2"/>
<g stroke="#D98BAE" stroke-width="2" stroke-linecap="round" opacity="0.8">
<line x1="40" y1="126" x2="70" y2="122"/>
<line x1="40" y1="136" x2="70" y2="136"/>
<line x1="160" y1="126" x2="130" y2="122"/>
<line x1="160" y1="136" x2="130" y2="136"/>
</g>
<path d="M72 106 Q78 98 84 106" stroke="#4A2E12" stroke-width="5" fill="none" stroke-linecap="round"/>
<path d="M116 106 Q122 98 128 106" stroke="#4A2E12" stroke-width="5" fill="none" stroke-linecap="round"/>
<path d="M100 128 L94 138 L106 138 Z" fill="#E8748E"/>
<path d="M100 138 Q100 146 90 148" stroke="#4A2E12" stroke-width="3" fill="none" stroke-linecap="round"/>
<path d="M100 138 Q100 146 110 148" stroke="#4A2E12" stroke-width="3" fill="none" stroke-linecap="round"/>
</svg>
