<svg xmlns="http://www.w3.org/2000/svg" viewBox="0 0 200 200" width="200" height="200" role="img" aria-labelledby="t">
<title id="t">Hamster</title>
<defs>
<linearGradient id="bg" x1="0" y1="0" x2="0" y2="1">
<stop offset="0" stop-color="#FFF8E4"/>
<stop offset="1" stop-color="#FFE7A8"/>
</linearGradient>
</defs>
<circle cx="100" cy="100" r="100" fill="url(#bg)"/>
<circle cx="66" cy="76" r="16" fill="#D89646"/>
<circle cx="134" cy="76" r="16" fill="#D89646"/>
<circle cx="66" cy="76" r="9" fill="#F6C87E"/>
<circle cx="134" cy="76" r="9" fill="#F6C87E"/>
<circle cx="100" cy="118" r="50" fill="#F0B25B"/>
<ellipse cx="64" cy="132" rx="26" ry="22" fill="#F6C87E"/>
<ellipse cx="136" cy="132" rx="26" ry="22" fill="#F6C87E"/>
<ellipse cx="100" cy="140" rx="16" ry="12" fill="#FBE3B8"/>
<g stroke="#D9A15C" stroke-width="2" stroke-linecap="round" opacity="0.8">
<line x1="46" y1="128" x2="66" y2="126"/>
<line x1="46" y1="138" x2="66" y2="136"/>
<line x1="154" y1="128" x2="134" y2="126"/>
<line x1="154" y1="138" x2="134" y2="136"/>
</g>
<ellipse cx="80" cy="108" rx="7" ry="8" fill="#3B2A1E"/>
<ellipse cx="120" cy="108" rx="7" ry="8" fill="#3B2A1E"/>
<circle cx="82" cy="105" r="2" fill="#fff"/>
<circle cx="122" cy="105" r="2" fill="#fff"/>
<ellipse cx="100" cy="130" rx="6" ry="4" fill="#3B2A1E"/>
</svg>
